<?xml version="1.0" encoding="utf-8"?>
<!-- Generator: Adobe Illustrator 15.1.0, SVG Export Plug-In . SVG Version: 6.00 Build 0)  -->
<!DOCTYPE svg PUBLIC "-//W3C//DTD SVG 1.1//EN" "http://www.w3.org/Graphics/SVG/1.1/DTD/svg11.dtd">
<svg version="1.1" id="Vrstva_1" xmlns="http://www.w3.org/2000/svg" xmlns:xlink="http://www.w3.org/1999/xlink" x="0px" y="0px"
	 width="61.934px" height="210.139px" viewBox="0 0 61.934 210.139" enable-background="new 0 0 61.934 210.139"
	 xml:space="preserve">
<path fill="#00474F" fill-opacity="0.5" d="M20.592,4.445C18.486,1.744,15.194,0,11.499,0C5.158,0,0,5.127,0,11.429V49.97h28.401
	v-4.782h-5.404V11.429c0-3.228,2.329-5.926,5.404-6.521V0.073C25.232,0.425,22.45,2.062,20.592,4.445z M18.185,45.188H4.812V11.429
	c0-3.665,3-6.646,6.688-6.646s6.687,2.98,6.687,6.646L18.185,45.188L18.185,45.188z M47.87,0c-3.696,0-6.988,1.744-9.094,4.444
	c-1.857-2.384-4.641-4.021-7.81-4.372v4.833c3.076,0.597,5.405,3.294,5.405,6.521v33.758h-5.405v4.783h28.402V11.429
	C59.369,5.127,54.21,0,47.87,0z M41.183,45.188V11.429c0-3.665,3-6.646,6.688-6.646s6.687,2.98,6.687,6.646l0.001,33.758
	L41.183,45.188L41.183,45.188z"/>
<path fill="#00474F" fill-opacity="0.5" d="M16.903,52.535c-3.695,0-6.987,1.743-9.093,4.444C5.952,54.597,3.169,52.959,0,52.608
	v4.833c3.076,0.598,5.404,3.294,5.404,6.522v33.759H0v4.783h28.401V63.964C28.402,57.662,23.244,52.535,16.903,52.535z
	 M23.589,97.723H10.216V63.964c0-3.665,3-6.646,6.687-6.646c3.688,0,6.688,2.981,6.688,6.646L23.589,97.723L23.589,97.723z
	 M59.369,57.442v-4.833c-3.168,0.352-5.951,1.988-7.81,4.371c-2.104-2.701-5.396-4.444-9.094-4.444c-6.341,0-11.5,5.127-11.5,11.429
	v38.541h28.402v-4.782h-5.404V63.964C53.965,60.736,56.293,58.038,59.369,57.442z M35.779,97.723V63.964
	c0-3.665,3-6.646,6.688-6.646c3.687,0,6.687,2.981,6.687,6.646l0.001,33.759H35.779z"/>
<path fill="#00474F" d="M20.592,109.515c-2.106-2.701-5.398-4.445-9.093-4.445C5.158,105.069,0,110.196,0,116.499v38.54h28.401
	v-4.782h-5.404v-33.758c0-3.229,2.329-5.927,5.404-6.522v-4.834C25.232,105.494,22.45,107.131,20.592,109.515z M18.185,150.257
	H4.812v-33.758c0-3.666,3-6.646,6.688-6.646s6.687,2.98,6.687,6.646L18.185,150.257L18.185,150.257z M47.87,105.069
	c-3.696,0-6.988,1.744-9.094,4.445c-1.857-2.384-4.641-4.021-7.81-4.372v4.833c3.076,0.597,5.405,3.294,5.405,6.521v33.759h-5.405
	v4.783h28.402v-38.54C59.369,110.196,54.21,105.069,47.87,105.069z M41.183,150.257v-33.758c0-3.666,3-6.646,6.688-6.646
	s6.687,2.98,6.687,6.646l0.001,33.758H41.183z"/>
<path fill="#00474F" d="M16.903,157.604c-3.695,0-6.987,1.744-9.093,4.445c-1.857-2.384-4.641-4.021-7.81-4.373v4.834
	c3.076,0.596,5.404,3.293,5.404,6.521v33.759H0v4.783h28.401v-38.541C28.402,162.731,23.244,157.604,16.903,157.604z
	 M23.589,202.792H10.216v-33.759c0-3.665,3-6.646,6.687-6.646c3.688,0,6.688,2.98,6.688,6.646L23.589,202.792L23.589,202.792z
	 M59.369,162.511v-4.832c-3.168,0.35-5.951,1.987-7.81,4.371c-2.104-2.701-5.396-4.445-9.094-4.445c-6.341,0-11.5,5.127-11.5,11.43
	v38.541h28.402v-4.782h-5.404v-33.759C53.965,165.806,56.293,163.106,59.369,162.511z M35.779,202.792v-33.759
	c0-3.665,3-6.646,6.688-6.646c3.687,0,6.687,2.98,6.687,6.646l0.001,33.759H35.779z"/>
</svg>
