<?xml version="1.0" encoding="utf-8"?>
<!-- Generator: Adobe Illustrator 15.1.0, SVG Export Plug-In . SVG Version: 6.00 Build 0)  -->
<!DOCTYPE svg PUBLIC "-//W3C//DTD SVG 1.1//EN" "http://www.w3.org/Graphics/SVG/1.1/DTD/svg11.dtd">
<svg version="1.1" id="Vrstva_1" xmlns="http://www.w3.org/2000/svg" xmlns:xlink="http://www.w3.org/1999/xlink" x="0px" y="0px"
	 width="61.934px" height="105.071px" viewBox="0 0 61.934 105.071" enable-background="new 0 0 61.934 105.071"
	 xml:space="preserve">
<path fill="#BAA87F" d="M20.592,4.445C18.486,1.744,15.194,0,11.499,0C5.158,0,0,5.127,0,11.429V49.97h28.4v-4.782h-5.403V11.429
	c0-3.228,2.329-5.926,5.403-6.521V0.073C25.232,0.425,22.45,2.062,20.592,4.445z M18.185,45.188H4.812V11.429
	c0-3.665,3-6.646,6.688-6.646c3.688,0,6.687,2.98,6.687,6.646L18.185,45.188L18.185,45.188z M47.87,0
	c-3.696,0-6.988,1.744-9.095,4.444c-1.856-2.384-4.641-4.021-7.81-4.372v4.833c3.076,0.597,5.405,3.294,5.405,6.521v33.758h-5.405
	v4.783h28.402V11.429C59.369,5.127,54.21,0,47.87,0z M41.183,45.188V11.429c0-3.665,3-6.646,6.688-6.646
	c3.688,0,6.687,2.98,6.687,6.646l0.001,33.758L41.183,45.188L41.183,45.188z"/>
<path fill="#BAA87F" d="M16.903,52.535c-3.694,0-6.986,1.743-9.093,4.444c-1.857-2.382-4.641-4.02-7.81-4.371v4.833
	c3.076,0.598,5.403,3.294,5.403,6.522v33.759H0v4.783h28.4V63.964C28.402,57.662,23.244,52.535,16.903,52.535z M23.589,97.723
	H10.216V63.964c0-3.665,3-6.646,6.687-6.646c3.688,0,6.688,2.981,6.688,6.646L23.589,97.723L23.589,97.723z M59.369,57.442v-4.833
	c-3.168,0.352-5.951,1.988-7.811,4.371c-2.104-2.701-5.396-4.444-9.094-4.444c-6.341,0-11.5,5.127-11.5,11.429v38.541h28.402v-4.782
	h-5.404v-33.76C53.965,60.736,56.293,58.038,59.369,57.442z M35.779,97.723V63.964c0-3.665,3-6.646,6.688-6.646
	c3.687,0,6.687,2.981,6.687,6.646l0.001,33.759H35.779z"/>
</svg>
