<svg width="80" height="96" viewBox="0 0 80 96" fill="none" xmlns="http://www.w3.org/2000/svg">
<path d="M32 24C32 10.7452 42.7452 0 56 0C69.2548 0 80 10.7452 80 24V96H32V24Z" fill="#00474F"/>
<g clip-path="url(#clip0_2151_3)">
<path d="M48.267 37.7671H1.5V82.5001H48.267V37.7671Z" stroke="#CCB88D" stroke-width="3" stroke-miterlimit="10" stroke-linecap="round" stroke-linejoin="round"/>
<path d="M40.57 82.5001H62.5V37.7671H40.57" stroke="#CCB88D" stroke-width="3" stroke-miterlimit="10" stroke-linecap="round" stroke-linejoin="round"/>
<path d="M14.717 45.9V31.667C14.717 26.052 19.269 21.5 24.884 21.5C30.499 21.5 35.05 26.052 35.05 31.667V45.9" stroke="#CCB88D" stroke-width="3" stroke-miterlimit="10" stroke-linecap="round" stroke-linejoin="round"/>
<path d="M27.933 37.767V31.667C27.933 26.052 32.485 21.5 38.1 21.5C43.715 21.5 48.266 26.052 48.266 31.667V37.767" stroke="#CCB88D" stroke-width="3" stroke-miterlimit="10" stroke-linecap="round" stroke-linejoin="round"/>
</g>
<defs>
<clipPath id="clip0_2151_3">
<rect width="64" height="64" fill="white" transform="translate(0 20)"/>
</clipPath>
</defs>
</svg>
