<svg width="72" height="76" viewBox="0 0 72 76" fill="none" xmlns="http://www.w3.org/2000/svg">
<path d="M0 24C0 10.7452 10.7452 0 24 0C37.2548 0 48 10.7452 48 24V76H0V24Z" fill="#005A64"/>
<g clip-path="url(#clip0_2119_2)">
<path d="M32.8785 30.7637L27.0098 34.2849C25.8803 34.9629 25.1243 36.1989 25.1243 37.6127C25.1243 39.0257 25.8803 40.2617 27.0098 40.9397L46.008 52.5714C46.59 52.9202 47.2718 53.1219 48 53.1219C48.7283 53.1219 49.41 52.9202 49.9928 52.5714L68.9895 40.9397C70.1183 40.2617 70.875 39.0257 70.875 37.6127C70.875 36.1989 70.1183 34.9629 68.9895 34.2849L63.1208 30.7637" stroke="#CCB88D" stroke-width="3" stroke-miterlimit="10" stroke-linecap="round" stroke-linejoin="round"/>
<path d="M25.125 37.6123V60.8751H70.875V37.8171" stroke="#CCB88D" stroke-width="3" stroke-miterlimit="10" stroke-linecap="round" stroke-linejoin="round"/>
<path d="M32.8785 44.4605V19.0018C32.8785 16.8605 34.6148 15.125 36.7568 15.125H59.2433C61.3845 15.125 63.1208 16.8605 63.1208 19.0018V44.4597" stroke="#CCB88D" stroke-width="3" stroke-miterlimit="10" stroke-linecap="round" stroke-linejoin="round"/>
<path d="M40.6335 25.9814H55.3673" stroke="#CCB88D" stroke-width="3" stroke-miterlimit="10" stroke-linecap="round" stroke-linejoin="round"/>
<path d="M40.6335 33.7344H55.3673" stroke="#CCB88D" stroke-width="3" stroke-miterlimit="10" stroke-linecap="round" stroke-linejoin="round"/>
<path d="M44.1225 41.4893H51.8782" stroke="#CCB88D" stroke-width="3" stroke-miterlimit="10" stroke-linecap="round" stroke-linejoin="round"/>
</g>
<defs>
<clipPath id="clip0_2119_2">
<rect width="48" height="48" fill="white" transform="translate(24 14)"/>
</clipPath>
</defs>
</svg>
