<svg width="84" height="110" viewBox="0 0 84 110" fill="none" xmlns="http://www.w3.org/2000/svg">
<path d="M0 24C0 10.7452 10.7452 0 24 0C37.2548 0 48 10.7452 48 24V110H0V24Z" fill="#00474F"/>
<g clip-path="url(#clip0_2132_9)">
<path d="M76.0789 34.967C78.339 33.8521 79.8926 31.5245 79.8926 28.8346C79.8926 25.0602 76.8326 22.0002 73.0582 22.0002C70.0466 22.0002 67.4906 23.9476 66.5794 26.6532" stroke="#CCB88D" stroke-width="3" stroke-miterlimit="10" stroke-linecap="round" stroke-linejoin="round"/>
<path d="M25.8285 55.2699L18.7264 58.4626C15.6596 59.8408 13.6864 62.8906 13.6864 66.2544V83.9068C13.6864 87.4449 16.5551 90.3125 20.0933 90.3125H36.6094" stroke="#CCB88D" stroke-width="3" stroke-miterlimit="10" stroke-linecap="round" stroke-linejoin="round"/>
<path d="M35.9422 55.2451L42.9926 58.4503C44.2594 59.0274 46.1651 60.5472 46.1651 63.1899" stroke="#CCB88D" stroke-width="3" stroke-miterlimit="10" stroke-linecap="round" stroke-linejoin="round"/>
<path d="M25.2199 74.3813V82.3396H37.2236" stroke="#CCB88D" stroke-width="3" stroke-miterlimit="10" stroke-linecap="round" stroke-linejoin="round"/>
<path d="M42.3053 39.0856V35.0997C42.3053 30.3826 38.4802 26.5576 33.762 26.5576H28.0672C23.349 26.5576 19.5251 30.3826 19.5251 35.0997V39.0856" stroke="#CCB88D" stroke-width="3" stroke-miterlimit="10" stroke-linecap="round" stroke-linejoin="round"/>
<path d="M35.4709 55.4825V59.5877C35.4709 62.1032 33.4301 64.1439 30.9146 64.1439C28.3991 64.1439 26.3584 62.1043 26.3584 59.5877V55.5962" stroke="#CCB88D" stroke-width="3" stroke-miterlimit="10" stroke-linecap="round" stroke-linejoin="round"/>
<path d="M30.9146 56.171C24.6236 56.171 19.524 51.0713 19.524 44.7803V39.0845H21.4916C24.6506 39.0845 27.7241 38.0596 30.2509 36.1651L30.9135 35.6678L31.5761 36.1651C34.1029 38.0607 37.1775 39.0845 40.3354 39.0845H42.3041V44.7803C42.3052 51.0713 37.2056 56.171 30.9146 56.171Z" stroke="#CCB88D" stroke-width="3" stroke-miterlimit="10" stroke-linecap="round" stroke-linejoin="round"/>
<path d="M49.836 63.1899C49.836 60.7813 51.7395 59.0274 53.0074 58.4503L59.8226 55.3521" stroke="#CCB88D" stroke-width="3" stroke-miterlimit="10" stroke-linecap="round" stroke-linejoin="round"/>
<path d="M70.1288 55.2518L77.2725 58.4626C80.3404 59.8407 82.3125 62.8906 82.3125 66.2543V83.9067C82.3125 87.4448 79.4437 90.3124 75.9056 90.3124H59.3895" stroke="#CCB88D" stroke-width="3" stroke-miterlimit="10" stroke-linecap="round" stroke-linejoin="round"/>
<path d="M70.7801 74.3813V82.3396H58.2476" stroke="#CCB88D" stroke-width="3" stroke-miterlimit="10" stroke-linecap="round" stroke-linejoin="round"/>
<path d="M76.476 39.0856V37.9471C76.476 31.6561 71.3764 26.5565 65.0854 26.5565C58.7944 26.5565 53.6959 31.6561 53.6959 37.9471V39.0856" stroke="#CCB88D" stroke-width="3" stroke-miterlimit="10" stroke-linecap="round" stroke-linejoin="round"/>
<path d="M69.6405 55.8087V59.5876C69.6405 62.1031 67.6009 64.1439 65.0843 64.1439C62.5676 64.1439 60.528 62.1042 60.528 59.5876V55.5792" stroke="#CCB88D" stroke-width="3" stroke-miterlimit="10" stroke-linecap="round" stroke-linejoin="round"/>
<path d="M65.0854 56.171C58.7944 56.171 53.6959 51.0713 53.6959 44.7803V39.0845L58.2521 41.3345C61.2098 41.3345 64.0875 38.1248 66.4523 36.3507L67.3646 35.6678L68.2759 36.3507C70.6429 38.1248 73.5195 39.0845 76.4771 39.0845V44.7803C76.476 51.0713 71.3753 56.171 65.0854 56.171Z" stroke="#CCB88D" stroke-width="3" stroke-miterlimit="10" stroke-linecap="round" stroke-linejoin="round"/>
<path d="M52.4685 77.5538C53.8174 78.131 55.0324 78.9601 56.055 79.9805C58.1149 82.0415 59.3906 84.8888 59.3906 88.0343V90.3113H36.6105V88.0343C36.6105 83.3296 39.4635 79.2908 43.5326 77.5538" stroke="#CCB88D" stroke-width="3" stroke-miterlimit="10" stroke-linecap="round" stroke-linejoin="round"/>
<path d="M48 78.9231C52.4033 78.9231 55.9729 75.3535 55.9729 70.9502C55.9729 66.5469 52.4033 62.9773 48 62.9773C43.5967 62.9773 40.0271 66.5469 40.0271 70.9502C40.0271 75.3535 43.5967 78.9231 48 78.9231Z" stroke="#CCB88D" stroke-width="3" stroke-miterlimit="10" stroke-linecap="round" stroke-linejoin="round"/>
</g>
<defs>
<clipPath id="clip0_2132_9">
<rect width="72" height="72" fill="white" transform="translate(12 20)"/>
</clipPath>
</defs>
</svg>
