<?xml version="1.0" encoding="utf-8"?>
<!-- Generator: Adobe Illustrator 15.1.0, SVG Export Plug-In . SVG Version: 6.00 Build 0)  -->
<!DOCTYPE svg PUBLIC "-//W3C//DTD SVG 1.1//EN" "http://www.w3.org/Graphics/SVG/1.1/DTD/svg11.dtd">
<svg version="1.1" id="Vrstva_1" xmlns="http://www.w3.org/2000/svg" xmlns:xlink="http://www.w3.org/1999/xlink" x="0px" y="0px"
	 width="39px" height="36px" viewBox="0 0 39 36" enable-background="new 0 0 39 36" xml:space="preserve">
<path fill="#CCB88D" d="M0,18C0,8.059,8.059,0,18,0h21v36H18C8.059,36,0,27.941,0,18z"/>
<path fill="#005A64" d="M16.744,18.587h1.973v8.123c0,0.16,0.13,0.29,0.29,0.29h3.346c0.16,0,0.29-0.13,0.29-0.29v-8.085h2.269
	c0.147,0,0.271-0.11,0.288-0.257l0.345-2.991c0.009-0.082-0.017-0.165-0.072-0.226c-0.055-0.062-0.134-0.098-0.217-0.098h-2.612
	v-1.875c0-0.565,0.304-0.852,0.904-0.852c0.085,0,1.708,0,1.708,0c0.161,0,0.291-0.13,0.291-0.29V9.292
	c0-0.161-0.13-0.291-0.291-0.291h-2.354C22.885,9.001,22.848,9,22.794,9c-0.408,0-1.828,0.08-2.95,1.112
	c-1.243,1.144-1.07,2.513-1.029,2.75v2.192h-2.071c-0.161,0-0.291,0.13-0.291,0.291v2.952
	C16.454,18.457,16.583,18.587,16.744,18.587z"/>
</svg>
