<?xml version="1.0" encoding="utf-8"?>
<!-- Generator: Adobe Illustrator 15.1.0, SVG Export Plug-In . SVG Version: 6.00 Build 0)  -->
<!DOCTYPE svg PUBLIC "-//W3C//DTD SVG 1.1//EN" "http://www.w3.org/Graphics/SVG/1.1/DTD/svg11.dtd">
<svg version="1.1" id="Vrstva_1" xmlns="http://www.w3.org/2000/svg" xmlns:xlink="http://www.w3.org/1999/xlink" x="0px" y="0px"
	 width="39px" height="36px" viewBox="0 0 39 36" enable-background="new 0 0 39 36" xml:space="preserve">
<path fill="#CCB88D" d="M39,18c0,9.941-8.059,18-18,18H0V0h21C30.941,0,39,8.059,39,18z"/>
<g>
	<g>
		<path fill="#005A64" d="M12.164,9.016C10.968,9.016,10,9.985,10,11.178c0,1.194,0.968,2.164,2.164,2.164
			c1.192,0,2.161-0.969,2.161-2.164C14.325,9.985,13.355,9.016,12.164,9.016z"/>
		<path fill="#005A64" d="M10.297,14.982h3.73v12.003h-3.73V14.982z"/>
		<path fill="#005A64" d="M23.525,14.684c-1.814,0-3.031,0.995-3.529,1.938h-0.051v-1.64h-3.578l0,0v12.002h3.728v-5.938
			c0-1.565,0.298-3.082,2.239-3.082c1.912,0,1.938,1.791,1.938,3.183v5.837H28V20.4C28,17.169,27.303,14.684,23.525,14.684z"/>
	</g>
</g>
</svg>
