<?xml version="1.0" encoding="utf-8"?>
<!-- Generator: Adobe Illustrator 15.1.0, SVG Export Plug-In . SVG Version: 6.00 Build 0)  -->
<!DOCTYPE svg PUBLIC "-//W3C//DTD SVG 1.1//EN" "http://www.w3.org/Graphics/SVG/1.1/DTD/svg11.dtd">
<svg version="1.1" id="Vrstva_1" xmlns="http://www.w3.org/2000/svg" xmlns:xlink="http://www.w3.org/1999/xlink" x="0px" y="0px"
	 width="175.999px" height="21.226px" viewBox="0 0 175.999 21.226" enable-background="new 0 0 175.999 21.226"
	 xml:space="preserve">
<g>
	<g>
		<path fill="#FFFFFF" d="M53.075,12.733c0,1.167-0.419,2.165-1.258,2.995c-0.84,0.83-1.841,1.244-3.007,1.244
			c-1.175,0-2.179-0.414-3.013-1.244c-0.834-0.83-1.252-1.828-1.252-2.995V0h-4.277v12.733c0,2.344,0.834,4.345,2.503,6.003
			c1.668,1.658,3.682,2.488,6.039,2.488c2.348,0,4.359-0.83,6.033-2.488c1.673-1.658,2.509-3.66,2.509-6.003V0h-4.278L53.075,12.733
			z M60.582,21.226h4.609l3.92-9.612l3.933,9.612l2.349-5.739L69.111,0.001L60.582,21.226z M76.978,0l-2.313,5.858l6.247,15.367
			h4.596L76.978,0z M7.47,0H0v21.225h4.277V4.24H7.47c0.883,0,1.638,0.313,2.265,0.941c0.626,0.628,0.939,1.376,0.939,2.245
			c0,0.878-0.313,1.628-0.939,2.251c-0.627,0.624-1.382,0.936-2.265,0.936H7.236v4.239H7.47c2.057,0,3.819-0.726,5.285-2.179
			c1.465-1.452,2.199-3.201,2.199-5.247c0-2.037-0.733-3.783-2.199-5.241C11.289,0.729,9.527,0,7.47,0z M33.45,11.686
			c0.906-1.261,1.357-2.68,1.357-4.26c0-2.037-0.732-3.783-2.199-5.241C31.144,0.729,29.382,0,27.325,0h-0.234v4.24h0.234
			c0.883,0,1.638,0.313,2.265,0.941c0.626,0.628,0.94,1.376,0.94,2.245c0,0.878-0.314,1.628-0.94,2.252
			c-0.627,0.623-1.382,0.935-2.265,0.935h-3.192l0-10.613h-4.277v21.225h4.277v-7.768l5.457,7.768h5.218l-4.821-6.859
			C31.391,13.839,32.545,12.946,33.45,11.686z"/>
		<path fill="#FFFFFF" d="M136.896,9.612l12.806,11.613v-5.719L132.617,0.001v21.225h4.277L136.896,9.612z M124.934,4.24L126.65,0
			h-15.701v21.226h13.984l1.717-4.253h-11.424v-4.239h7.575l1.716-4.239h-9.291V4.24H124.934z M149.702,0h-4.278v7.64l4.278,3.944V0
			z M100.109,14.366c1.404-0.527,2.558-1.42,3.463-2.68c0.906-1.261,1.357-2.68,1.357-4.26c0-2.036-0.732-3.783-2.199-5.241
			C101.266,0.729,99.504,0,97.447,0h-7.471v5.969h4.277V4.24h3.193c0.883,0,1.637,0.314,2.264,0.941
			c0.627,0.628,0.939,1.376,0.939,2.245c0,0.878-0.313,1.628-0.939,2.252s-1.382,0.935-2.264,0.935h-3.193V8.88h-4.277v12.346h4.277
			v-7.769l5.457,7.769h5.219L100.109,14.366z M162.932,21.226h4.278V4.24h7.073L175.999,0h-18.425l-1.715,4.239h7.074v16.986
			H162.932z"/>
	</g>
</g>
</svg>
