<?xml version="1.0" encoding="utf-8"?>
<!-- Generator: Adobe Illustrator 15.1.0, SVG Export Plug-In . SVG Version: 6.00 Build 0)  -->
<!DOCTYPE svg PUBLIC "-//W3C//DTD SVG 1.1//EN" "http://www.w3.org/Graphics/SVG/1.1/DTD/svg11.dtd">
<svg version="1.1" id="Vrstva_1" xmlns="http://www.w3.org/2000/svg" xmlns:xlink="http://www.w3.org/1999/xlink" x="0px" y="0px"
	 width="240px" height="28.944px" viewBox="0 0 240 28.944" enable-background="new 0 0 240 28.944" xml:space="preserve">
<path fill="#FFFFFF" d="M72.375,17.365c0,1.591-0.571,2.952-1.715,4.083c-1.146,1.132-2.511,1.696-4.1,1.696
	c-1.603,0-2.971-0.564-4.109-1.696c-1.138-1.131-1.708-2.492-1.708-4.083V0H54.91v17.363c0,3.196,1.138,5.925,3.414,8.188
	c2.275,2.261,5.021,3.393,8.235,3.393c3.202,0,5.944-1.132,8.226-3.393c2.282-2.262,3.422-4.991,3.422-8.188V0h-5.834L72.375,17.365
	z M82.611,28.946h6.285l5.346-13.106l5.363,13.106l3.203-7.827L94.243,0.002L82.611,28.946z M104.97,0l-3.154,7.988l8.519,20.954
	h6.268L104.97,0z M10.186,0H0v28.942h5.833V5.782h4.354c1.204,0,2.234,0.427,3.089,1.283c0.854,0.856,1.281,1.876,1.281,3.062
	c0,1.198-0.427,2.221-1.281,3.069c-0.855,0.851-1.885,1.276-3.089,1.276H9.868v5.78h0.319c2.805,0,5.208-0.989,7.207-2.972
	c1.998-1.979,2.998-4.365,2.998-7.154c0-2.776-1-5.158-2.998-7.146C15.394,0.994,12.991,0,10.186,0z M45.614,15.937
	c1.235-1.719,1.851-3.655,1.851-5.81c0-2.776-0.999-5.158-2.999-7.146c-1.997-1.986-4.4-2.98-7.205-2.98h-0.319v5.782h0.319
	c1.204,0,2.233,0.427,3.088,1.283c0.854,0.856,1.282,1.876,1.282,3.061c0,1.198-0.428,2.221-1.282,3.071
	c-0.855,0.85-1.884,1.275-3.088,1.275h-4.353V0.001h-5.832v28.942h5.833V18.352l7.441,10.592h7.116l-6.574-9.354
	C42.806,18.871,44.38,17.655,45.614,15.937z"/>
<path fill="#CCB88D" d="M186.677,13.109l17.464,15.836v-7.799L180.842,0.002v28.943h5.833L186.677,13.109z M170.363,5.783
	l2.342-5.782h-21.411v28.944h19.07l2.341-5.8h-15.578v-5.781h10.33l2.34-5.781h-12.67v-5.8H170.363z M204.141,0h-5.834v10.418
	l5.834,5.38V0z M136.514,19.591c1.914-0.72,3.486-1.938,4.723-3.654c1.234-1.719,1.851-3.655,1.851-5.81
	c0-2.775-0.999-5.158-2.999-7.146c-1.997-1.986-4.398-2.98-7.204-2.98h-10.188v8.14h5.832V5.783h4.354
	c1.204,0,2.231,0.428,3.087,1.283c0.854,0.856,1.281,1.877,1.281,3.062c0,1.198-0.427,2.221-1.281,3.071
	c-0.855,0.851-1.885,1.274-3.087,1.274h-4.354V12.11h-5.832v16.835h5.832V18.352l7.441,10.594h7.116L136.514,19.591z M222.18,28.946
	h5.834V5.783h9.646L240,0.001h-25.125l-2.339,5.781h9.647v23.164L222.18,28.946L222.18,28.946z"/>
</svg>
