<svg width="140" height="38" viewBox="0 0 140 38" fill="none" xmlns="http://www.w3.org/2000/svg">
<g clip-path="url(#clip0_2065_12)">
<path d="M22.3482 0.373413H10.171C9.7125 0.373413 9.3408 0.739242 9.3408 1.19119V7.72856C9.3408 8.17982 9.7125 8.54565 10.171 8.54565H22.3482C22.8067 8.54565 23.1784 8.17982 23.1784 7.72856V1.19119C23.1784 0.739931 22.8067 0.373413 22.3482 0.373413ZM0.8302 13.9931H7.4732C7.9317 13.9931 8.3034 13.6273 8.3034 13.1753V1.19119C8.3034 0.739931 7.9324 0.374102 7.4732 0.374102H0.8302C0.3717 0.373413 0 0.739931 0 1.19119V13.176C0 13.6266 0.3717 13.9931 0.8302 13.9931ZM7.4725 24.2067H0.8295C0.3717 24.2067 0 24.5725 0 25.0245V37.0093C0 37.4606 0.3717 37.8271 0.8302 37.8271H7.4732C7.9317 37.8271 8.3034 37.4613 8.3034 37.0093V25.0245C8.3027 24.5725 7.9317 24.2067 7.4725 24.2067ZM15.7752 15.0148H0.8302C0.3717 15.0148 0 15.38 0 15.8312V22.3686C0 22.8198 0.3717 23.1864 0.8302 23.1864H15.7759C16.2344 23.1864 16.6061 22.8205 16.6061 22.3686V15.8312C16.6054 15.38 16.2337 15.0148 15.7752 15.0148Z" fill="white"/>
<path d="M43.2726 34.8839L39.6851 26.7847H37.1693V37.8078H39.1006V30.0117L42.5579 37.8078H43.9222L47.3956 29.9793V37.8078H49.3276V26.7847H46.8433L43.2726 34.8839ZM86.6999 30.2832C86.6999 28.2866 85.1088 26.7854 83.0158 26.7854H78.7451V37.8085H80.6757V33.7024H82.187L84.6223 37.8085H86.9428L84.2975 33.5109C85.7262 33.063 86.6999 31.8326 86.6999 30.2832ZM82.9836 32.04H80.6764V28.5739H82.9836C83.9734 28.5739 84.7042 29.309 84.7042 30.2997C84.7042 31.2904 83.9734 32.04 82.9836 32.04ZM99.2579 26.7847L94.8416 37.8078H96.9192L97.8292 35.4592H102.927L103.835 37.8078H105.963L101.546 26.7847H99.2579ZM98.5103 33.7017L100.377 28.8619L102.243 33.7017H98.5103ZM117.474 35.3007L114.099 26.7854H111.924L116.452 37.8085H118.449L122.962 26.7854H120.851L117.474 35.3007ZM135.587 26.7847H133.297L128.881 37.8078H130.959L131.868 35.4592H136.965L137.874 37.8078H140L135.587 26.7847ZM132.55 33.7017L134.418 28.8619L136.284 33.7017H132.55ZM37.1693 21.9346H41.5506V13.3427H49.3276V9.28074H41.5506V4.43817H50.6653V0.376163H37.1693V21.9346ZM90.0277 13.6852C92.5995 12.6545 94.3138 10.3114 94.3138 7.43713C94.3138 3.40613 91.1064 0.376163 86.8847 0.376163H78.7458V21.9346H83.1271V14.2487H85.3923L89.5825 21.9352H94.8528L90.0277 13.6852ZM86.7902 10.4995H83.1271V4.43817H86.7902C88.5031 4.43817 89.8044 5.74991 89.8044 7.46883C89.8044 9.18705 88.5038 10.4995 86.7902 10.4995ZM112.134 0.376163H96.4516V4.43817H102.101V21.9346H106.483V4.43817H112.134V0.376163ZM119.633 0.376163H115.252V21.9346H119.633V0.376163ZM138.819 15.7802C138.819 11.6548 135.741 9.99931 132.312 9.12435C129.994 8.53049 128.503 7.65622 128.503 6.0937C128.503 4.81295 129.677 3.8443 131.2 3.8443C132.789 3.8443 133.994 4.96934 133.994 6.46917H138.501C138.502 2.78195 135.36 0 131.201 0C127.107 0 123.995 2.71926 123.995 6.28109C123.995 10.2177 126.916 12.0923 130.186 12.9363C132.504 13.4978 134.313 14.4037 134.313 16.0289C134.313 17.4041 133.013 18.4664 131.328 18.4664C129.55 18.4664 128.185 17.1864 128.185 15.5611H123.678C123.678 19.4041 126.949 22.3093 131.265 22.3093C135.55 22.3093 138.819 19.4978 138.819 15.7802ZM64.1494 0C57.89 0 52.8164 4.99483 52.8164 11.1547C52.8164 17.3152 57.89 22.3093 64.1494 22.3093C70.4088 22.3093 75.4824 17.3152 75.4824 11.1547C75.4824 4.99483 70.4088 0 64.1494 0ZM64.1494 17.8663C60.3897 17.8663 57.33 14.8557 57.33 11.1547C57.33 7.45436 60.3897 4.44368 64.1494 4.44368C67.9098 4.44368 70.9688 7.45436 70.9688 11.1547C70.9688 14.8557 67.9098 17.8663 64.1494 17.8663ZM63.9275 26.5925C60.7278 26.5925 58.1329 29.1464 58.1329 32.2969C58.1329 35.4454 60.7278 37.9993 63.9275 37.9993C67.1286 37.9993 69.7228 35.4454 69.7228 32.2969C69.7228 29.1464 67.1286 26.5925 63.9275 26.5925ZM63.9275 36.1564C61.7659 36.1564 60.0061 34.4244 60.0061 32.2969C60.0061 30.1681 61.7652 28.4368 63.9275 28.4368C66.0912 28.4368 67.8496 30.1681 67.8496 32.2969C67.8496 34.4244 66.0912 36.1564 63.9275 36.1564Z" fill="white"/>
</g>
<defs>
<clipPath id="clip0_2065_12">
<rect width="140" height="38" fill="white"/>
</clipPath>
</defs>
</svg>
