<svg width="176" height="34" viewBox="0 0 176 34" fill="none" xmlns="http://www.w3.org/2000/svg">
<g clip-path="url(#clip0_2015_12)">
<path d="M53.075 12.7329C53.075 13.9001 52.6563 14.8981 51.8173 15.7278C50.9777 16.5575 49.9759 16.9716 48.8107 16.9716C47.6351 16.9716 46.6319 16.5575 45.7974 15.7278C44.9629 14.8981 44.5456 13.9001 44.5456 12.7329V0H40.2681V12.7329C40.2681 15.0768 41.1026 17.078 42.7717 18.7366C44.44 20.3952 46.4537 21.2248 48.8107 21.2248C51.1588 21.2248 53.1696 20.3952 54.8431 18.7366C56.5165 17.078 57.3525 15.076 57.3525 12.7329V0H53.0743L53.075 12.7329ZM60.5814 21.2256H65.1911L69.1115 11.6138L73.0444 21.2256L75.3933 15.4865L69.1115 0.000729051L60.5814 21.2256ZM76.978 0L74.6651 5.85792L80.9123 21.2248H85.5081L76.978 0ZM7.46973 0H0V21.2248H4.27753V4.24016H7.46973C8.35267 4.24016 9.108 4.55365 9.735 5.18136C10.3613 5.80907 10.6744 6.55708 10.6744 7.42611C10.6744 8.30461 10.3613 9.05481 9.735 9.67742C9.108 10.3008 8.35267 10.6128 7.46973 10.6128H7.2358V14.8522H7.46973C9.52673 14.8522 11.2889 14.1261 12.7549 12.6731C14.2201 11.2208 14.9534 9.47182 14.9534 7.42611C14.9534 5.38987 14.2201 3.64307 12.7549 2.18569C11.2889 0.728321 9.52673 0 7.46973 0ZM33.4503 11.686C34.3559 10.4254 34.8077 9.00596 34.8077 7.42611C34.8077 5.38987 34.0751 3.64307 32.6084 2.18569C31.1439 0.72905 29.3817 0 27.3247 0H27.0908V4.24016H27.3247C28.2077 4.24016 28.9623 4.55365 29.5893 5.18136C30.2155 5.80907 30.5294 6.55708 30.5294 7.42611C30.5294 8.30461 30.2155 9.05481 29.5893 9.67815C28.9623 10.3008 28.2077 10.6128 27.3247 10.6128H24.1325L24.1318 0H19.855V21.2248H24.1325V13.4568L29.5893 21.2248H34.8077L29.9867 14.3652C31.3911 13.8388 32.5453 12.9457 33.4503 11.686Z" fill="white"/>
<path d="M136.896 9.61253L149.702 21.2256V15.5069L132.617 0.00072905V21.2256H136.895L136.896 9.61253ZM124.934 4.24016L126.65 0H110.949V21.2256H124.934L126.65 16.9723H115.226V12.7329H122.802L124.518 8.49344H115.227V4.24016H124.934ZM149.702 0H145.424V7.63972L149.702 11.5839V0ZM100.11 14.3659C101.513 13.8388 102.667 12.9457 103.572 11.6859C104.478 10.4254 104.93 9.00596 104.93 7.42611C104.93 5.3906 104.197 3.64306 102.731 2.18569C101.266 0.72905 99.5045 0 97.4468 0H89.9763V5.96874H94.2539V4.24016H97.4468C98.3297 4.24016 99.0843 4.55438 99.7113 5.18136C100.338 5.80907 100.651 6.55781 100.651 7.42611C100.651 8.30461 100.338 9.05481 99.7113 9.67814C99.0843 10.3015 98.329 10.6128 97.4468 10.6128H94.2539V8.87984H89.9763V21.2256H94.2539V13.4568L99.7113 21.2256H104.93L100.11 14.3659ZM162.932 21.2256H167.21V4.24016H174.283L175.999 0H157.574L155.859 4.23943H162.933V21.2256H162.932ZM113.634 31.3062C113.634 32.8568 112.894 33.5844 111.592 33.5844C110.291 33.5844 109.542 32.8568 109.542 31.3062V27.752H109.088V31.3229C109.088 33.096 110.034 33.9993 111.585 33.9993C113.136 33.9993 114.09 33.096 114.09 31.3229V27.752H113.635V31.3062H113.634ZM0 31.156H47.0441V30.6201H0V31.156ZM60.9363 31.0051H64.2605V30.6063H60.9363V28.1603H64.6529V27.752H60.4809V33.9555H64.7871V33.548H60.9363V31.0051ZM57.6532 29.8444C57.6532 28.5321 56.7079 27.7528 55.1386 27.7528H52.9019V33.9563H53.3566V31.9273H55.1386C55.3535 31.9273 55.5493 31.9098 55.7458 31.8821L57.2337 33.9563H57.7522L56.1924 31.7844C57.1186 31.5103 57.6532 30.8272 57.6532 29.8444ZM55.1386 31.5271H53.3566V28.1603H55.1386C56.4769 28.1603 57.1897 28.7712 57.1897 29.8444C57.1897 30.9074 56.4769 31.5271 55.1386 31.5271ZM97.6815 29.8444C97.6815 28.5321 96.7362 27.7528 95.1676 27.7528H92.9302V33.9563H93.3856V31.9273H95.1676C95.381 31.9273 95.5783 31.9098 95.7741 31.8821L97.2627 33.9563H97.7805L96.2199 31.7844C97.1469 31.5103 97.6815 30.8272 97.6815 29.8444ZM95.1676 31.5271H93.3856V28.1603H95.1676C96.5052 28.1603 97.218 28.7712 97.218 29.8444C97.218 30.9074 96.5052 31.5271 95.1676 31.5271ZM119.61 27.752H117.372V33.9555H117.827V31.9266H119.61C121.178 31.9266 122.123 31.1458 122.123 29.8444C122.123 28.5321 121.177 27.752 119.61 27.752ZM119.61 31.5183H117.826V28.1603H119.61C120.946 28.1603 121.66 28.7712 121.66 29.8444C121.66 30.9074 120.946 31.5183 119.61 31.5183ZM103.157 27.7083C101.293 27.7083 99.913 29.0548 99.913 30.8541C99.913 32.6534 101.294 33.9993 103.157 33.9993C105.01 33.9993 106.401 32.6615 106.401 30.8541C106.402 29.0461 105.01 27.7083 103.157 27.7083ZM103.157 33.5844C101.561 33.5844 100.366 32.4223 100.366 30.8541C100.366 29.286 101.561 28.1246 103.157 28.1246C104.743 28.1246 105.939 29.286 105.939 30.8541C105.939 32.4223 104.743 33.5844 103.157 33.5844ZM128.955 30.6201V31.156H176V30.6201H128.955ZM69.4327 27.752L66.5617 33.9555H67.0523L67.8458 32.2094H71.4655L72.2671 33.9555H72.7577L69.8867 27.752H69.4327ZM68.024 31.8289L69.6557 28.2492L71.2961 31.8289H68.024ZM87.5615 28.1246C88.319 28.1246 88.9695 28.3273 89.5136 28.8595L89.7996 28.5584C89.2467 27.9919 88.4532 27.7083 87.5527 27.7083C85.6629 27.7083 84.2813 29.0461 84.2813 30.8541C84.2813 32.6615 85.6629 33.9993 87.5439 33.9993C88.3997 33.9993 89.2115 33.7339 89.7725 33.2017V30.8789H89.3361V33.0158C88.8287 33.424 88.2222 33.5837 87.5629 33.5837C85.9408 33.5837 84.7367 32.4048 84.7367 30.8534C84.7352 29.2947 85.9386 28.1246 87.5615 28.1246ZM75.5055 27.752H75.0515V33.9555H79.0988V33.548H75.5055V27.752Z" fill="white"/>
</g>
<defs>
<clipPath id="clip0_2015_12">
<rect width="176" height="34" fill="white"/>
</clipPath>
</defs>
</svg>
