<?xml version="1.0" encoding="utf-8"?>
<!-- Generator: Adobe Illustrator 15.1.0, SVG Export Plug-In . SVG Version: 6.00 Build 0)  -->
<!DOCTYPE svg PUBLIC "-//W3C//DTD SVG 1.1//EN" "http://www.w3.org/Graphics/SVG/1.1/DTD/svg11.dtd">
<svg version="1.1" id="Vrstva_1" xmlns="http://www.w3.org/2000/svg" xmlns:xlink="http://www.w3.org/1999/xlink" x="0px" y="0px"
	 width="240px" height="46.362px" viewBox="-32 -6.182 240 46.362" enable-background="new -32 -6.182 240 46.362"
	 xml:space="preserve">
<path fill="#FFFFFF" d="M40.375,11.182c0,1.591-0.571,2.952-1.715,4.083c-1.146,1.132-2.511,1.696-4.1,1.696
	c-1.603,0-2.971-0.564-4.109-1.696c-1.138-1.131-1.708-2.492-1.708-4.083V-6.182h-5.833v17.363c0,3.196,1.138,5.925,3.414,8.187
	c2.275,2.261,5.021,3.393,8.235,3.393c3.202,0,5.944-1.132,8.226-3.393c2.282-2.261,3.422-4.991,3.422-8.187V-6.182h-5.834
	L40.375,11.182z M50.611,22.763h6.285l5.346-13.107l5.363,13.107l3.203-7.827L62.243-6.18L50.611,22.763z M72.97-6.182l-3.154,7.988
	l8.519,20.954h6.268L72.97-6.182z M-21.814-6.182H-32v28.942h5.833v-23.16h4.354c1.204,0,2.234,0.427,3.089,1.283
	c0.854,0.856,1.281,1.876,1.281,3.062c0,1.198-0.427,2.22-1.281,3.069c-0.855,0.85-1.885,1.276-3.089,1.276h-0.319v5.781h0.319
	c2.805,0,5.208-0.99,7.207-2.972c1.998-1.98,2.998-4.365,2.998-7.154c0-2.777-1-5.159-2.998-7.146
	C-16.606-5.188-19.009-6.182-21.814-6.182z M13.614,9.754c1.235-1.719,1.851-3.655,1.851-5.809c0-2.777-0.999-5.159-2.999-7.146
	c-1.997-1.986-4.4-2.98-7.205-2.98H4.942v5.782h0.319c1.204,0,2.233,0.427,3.088,1.283C9.203,1.74,9.631,2.76,9.631,3.945
	c0,1.198-0.428,2.22-1.282,3.071C7.494,7.865,6.465,8.291,5.261,8.291H0.908l0-14.472h-5.832v28.942h5.833V12.169l7.441,10.592
	h7.116l-6.574-9.354C10.806,12.689,12.38,11.472,13.614,9.754z"/>
<path fill="#CCB88D" d="M154.677,6.926l17.463,15.836v-7.799L148.842-6.18v28.943h5.833L154.677,6.926z M138.364-0.399l2.341-5.782
	h-21.411v28.944h19.07l2.341-5.8h-15.578v-5.781h10.33l2.34-5.781h-12.67v-5.8H138.364z M172.14-6.182h-5.834V4.236l5.834,5.379
	V-6.182z M104.513,13.408c1.915-0.719,3.487-1.937,4.723-3.654c1.235-1.719,1.851-3.655,1.851-5.809
	c0-2.776-0.999-5.159-2.999-7.146c-1.997-1.986-4.399-2.98-7.204-2.98H90.695v8.139h5.833v-2.357h4.354
	c1.204,0,2.231,0.428,3.087,1.283c0.854,0.856,1.281,1.877,1.281,3.062c0,1.198-0.427,2.22-1.281,3.071
	c-0.855,0.85-1.885,1.274-3.087,1.274h-4.354V5.927h-5.833v16.835h5.833V12.169l7.441,10.594h7.116L104.513,13.408z M190.18,22.763
	h5.834V-0.399h9.646l2.34-5.782h-25.125l-2.339,5.781h9.647v23.164H190.18z M122.955,36.509c0,2.115-1.008,3.105-2.784,3.105
	c-1.774,0-2.796-0.99-2.796-3.105v-4.847h-0.619v4.868c0,2.419,1.291,3.65,3.405,3.65c2.116,0,3.416-1.231,3.416-3.65v-4.868h-0.621
	L122.955,36.509L122.955,36.509z M-32,36.304h64.151v-0.73H-32V36.304z M51.095,36.098h4.533v-0.543h-4.533v-3.336h5.068v-0.557
	h-5.689v8.459h5.872v-0.556h-5.251V36.098z M46.618,34.515c0-1.789-1.289-2.852-3.429-2.852h-3.05v8.459h0.62v-2.766h2.43
	c0.293,0,0.56-0.024,0.828-0.063l2.03,2.828h0.707l-2.127-2.962C45.889,36.786,46.618,35.855,46.618,34.515z M43.189,36.811h-2.43
	v-4.592h2.43c1.825,0,2.797,0.833,2.797,2.296C45.986,35.965,45.014,36.811,43.189,36.811z M101.202,34.515
	c0-1.789-1.289-2.852-3.428-2.852h-3.052v8.459h0.621v-2.766h2.431c0.29,0,0.56-0.024,0.826-0.063l2.03,2.828h0.706l-2.128-2.962
	C100.473,36.786,101.202,35.855,101.202,34.515z M97.774,36.811h-2.431v-4.592h2.431c1.824,0,2.795,0.833,2.795,2.296
	C100.569,35.965,99.599,36.811,97.774,36.811z M131.104,31.662h-3.051v8.459h0.621v-2.767h2.43c2.139,0,3.428-1.063,3.428-2.84
	C134.531,32.726,133.241,31.662,131.104,31.662z M131.104,36.798h-2.432v-4.579h2.432c1.822,0,2.797,0.833,2.797,2.296
	C133.9,35.965,132.926,36.798,131.104,36.798z M108.669,31.604c-2.542,0-4.424,1.835-4.424,4.288c0,2.454,1.883,4.289,4.424,4.289
	c2.526,0,4.423-1.823,4.423-4.289C113.094,33.427,111.195,31.604,108.669,31.604z M108.669,39.614c-2.178,0-3.806-1.584-3.806-3.723
	c0-2.138,1.628-3.721,3.806-3.721c2.163,0,3.794,1.583,3.794,3.721C112.463,38.03,110.832,39.614,108.669,39.614z M143.848,35.573
	v0.73H208v-0.73H143.848z M62.681,31.662l-3.915,8.459h0.669l1.082-2.382h4.936l1.093,2.382h0.669L63.3,31.662H62.681z
	 M60.76,37.222l2.226-4.882l2.236,4.882H60.76z M87.402,32.171c1.033,0,1.92,0.275,2.663,1.001l0.39-0.41
	c-0.755-0.772-1.836-1.158-3.064-1.158c-2.577,0-4.461,1.823-4.461,4.288c0,2.466,1.884,4.289,4.449,4.289
	c1.167,0,2.273-0.361,3.039-1.088v-3.167h-0.596v2.914c-0.692,0.557-1.519,0.774-2.417,0.774c-2.212,0-3.854-1.608-3.854-3.723
	C83.548,33.766,85.189,32.171,87.402,32.171z M70.962,31.662h-0.619v8.459h5.519v-0.556h-4.9V31.662z"/>
</svg>
