<svg width="260" height="80" viewBox="0 0 260 80" fill="none" xmlns="http://www.w3.org/2000/svg">
<g clip-path="url(#clip0_2003_2)">
<path d="M126.979 12.1048H120.167V39.3375H123.665V28.7174H126.979C127.827 28.7174 128.499 28.9656 128.997 29.462C129.493 29.9585 129.742 30.6181 129.742 31.4408V39.3386H133.239V31.4408C133.239 30.3512 132.96 29.4142 132.401 28.6276C132.049 28.13 131.604 27.7163 131.067 27.383C131.633 26.9192 132.098 26.3575 132.457 25.6955C132.978 24.7329 133.239 23.6235 133.239 22.3637V18.4597C133.239 16.5473 132.672 15.0101 131.538 13.8482C130.401 12.6864 128.882 12.1048 126.979 12.1048ZM129.741 22.3625C129.741 23.2342 129.493 23.937 128.995 24.4684C128.498 25.0009 127.825 25.2678 126.978 25.2678H123.664V15.5555H126.978C127.825 15.5555 128.498 15.8224 128.995 16.355C129.492 16.8876 129.741 17.5891 129.741 18.4608V22.3625ZM149.079 35.8879H141.347V27.1732H148.085V23.7249H141.347V15.5544H149.079V12.1048H137.848V39.3375H149.079V35.8879ZM165.528 35.8879H156.13L165.528 14.7013V12.1048H152.382V15.5544H161.763L152.365 36.741L152.384 39.3375H165.529V35.8879H165.528ZM169.489 39.3375H172.987V12.1048H169.489V39.3375ZM185.005 12.1048H178.561V39.3375H185.005C187.017 39.3375 188.625 38.7198 189.828 37.4857C191.031 36.2504 191.632 34.6293 191.632 32.6202V18.8221C191.632 16.8013 191.03 15.1768 189.828 13.9473C188.626 12.7178 187.018 12.1048 185.005 12.1048ZM188.136 32.6202C188.136 33.6003 187.854 34.3904 187.289 34.9894C186.723 35.5884 185.963 35.8879 185.005 35.8879H182.059V15.5544H185.005C185.963 15.5544 186.723 15.8539 187.289 16.4529C187.854 17.0519 188.136 17.842 188.136 18.8221V32.6202ZM208.141 35.8879H200.408V27.1732H207.146V23.7249H200.408V15.5544H208.141V12.1048H196.91V39.3375H208.141V35.8879ZM226.043 39.3375V12.1048H222.729V30.265L215.825 12.1048H212.971V39.3375H216.286V21.1773L223.189 39.3375H226.043ZM244.314 33.2006V32.1109H240.816V33.2006C240.816 34.1807 240.533 34.9708 239.968 35.5698C239.403 36.1688 238.643 36.4683 237.685 36.4683C236.728 36.4683 235.967 36.1688 235.402 35.5698C234.837 34.9708 234.554 34.1807 234.554 33.2006V18.2417C234.554 17.2616 234.837 16.4715 235.402 15.8725C235.967 15.2735 236.728 14.974 237.685 14.974C238.643 14.974 239.403 15.2735 239.968 15.8725C240.533 16.4715 240.816 17.2616 240.816 18.2417V19.3314H244.314V18.2417C244.314 16.221 243.712 14.5964 242.51 13.3669C241.306 12.1386 239.699 11.5245 237.686 11.5245C235.686 11.5245 234.08 12.1386 232.873 13.3669C231.664 14.5964 231.06 16.221 231.06 18.2417V33.2006C231.06 35.2097 231.664 36.8319 232.873 38.066C234.08 39.3002 235.686 39.9178 237.686 39.9178C239.699 39.9178 241.306 39.3002 242.51 38.066C243.712 36.8319 244.314 35.2097 244.314 33.2006ZM260 15.5544V12.1048H248.769V39.3375H260V35.8879H252.266V27.1732H259.005V23.7249H252.266V15.5544H260ZM126.979 52.187H120.167V79.4185H123.665V68.7983H126.979C127.827 68.7983 128.499 69.0466 128.997 69.543C129.493 70.0395 129.742 70.6991 129.742 71.5218V79.4185H133.239V71.5218C133.239 70.4322 132.96 69.4952 132.401 68.7074C132.049 68.211 131.604 67.7973 131.067 67.464C131.633 67.0002 132.098 66.4384 132.457 65.7765C132.978 64.8151 133.239 63.7045 133.239 62.4458V58.5418C133.239 56.6294 132.672 55.0923 131.538 53.9304C130.401 52.7673 128.882 52.187 126.979 52.187ZM129.741 62.4447C129.741 63.3164 129.493 64.0191 128.995 64.5505C128.498 65.0843 127.825 65.35 126.978 65.35H123.664V55.6377H126.978C127.825 55.6377 128.498 55.9046 128.995 56.4371C129.492 56.9697 129.741 57.6713 129.741 58.543V62.4447ZM142.577 52.187L136.832 79.4185H140.424L141.435 74.3724H147.437L148.432 79.4185H152.021L146.333 52.187H142.577ZM142.024 70.9228L144.452 58.3414L146.848 70.9228H142.024ZM162.247 52.187H155.804V79.4185H162.247C164.26 79.4185 165.867 78.802 167.071 77.5667C168.274 76.3314 168.875 74.7103 168.875 72.7012V58.9031C168.875 56.8823 168.273 55.2578 167.071 54.0283C165.867 52.8023 164.26 52.187 162.247 52.187ZM165.377 72.7024C165.377 73.6825 165.094 74.4726 164.529 75.0716C163.964 75.6706 163.204 75.9701 162.246 75.9701H159.301V55.6365H162.246C163.204 55.6365 163.964 55.936 164.529 56.535C165.094 57.1352 165.377 57.9242 165.377 58.9042V72.7024ZM183.91 70.3471L177.004 52.187H174.152V79.4185H177.465V61.2595L184.37 79.4185H187.224V52.187H183.91V70.3471ZM192.82 79.4185H196.318V52.187H192.82V79.4185ZM208.313 51.6055C206.314 51.6055 204.707 52.2196 203.5 53.4479C202.291 54.6774 201.686 56.3019 201.686 58.3239V73.2827C201.686 75.293 202.291 76.9141 203.5 78.1494C204.707 79.3847 206.314 80.0012 208.313 80.0012C210.326 80.0012 211.934 79.3847 213.137 78.1494C214.34 76.9141 214.941 75.293 214.941 73.2827V72.1931H211.443V73.2827C211.443 74.264 211.16 75.0541 210.595 75.652C210.03 76.2521 209.27 76.5505 208.312 76.5505C207.355 76.5505 206.594 76.251 206.029 75.652C205.464 75.0529 205.181 74.264 205.181 73.2827V58.3239C205.181 57.3426 205.464 56.5525 206.029 55.9547C206.594 55.3568 207.355 55.0562 208.312 55.0562C209.27 55.0562 210.03 55.3557 210.595 55.9547C211.16 56.5537 211.443 57.3426 211.443 58.3239V59.4135H214.941V58.3239C214.941 56.3031 214.339 54.6774 213.137 53.4479C211.935 52.2208 210.326 51.6055 208.313 51.6055ZM202.735 43.6541L206.914 49.0102H209.676L213.855 43.6541H210.651L208.312 46.8857L205.937 43.6541H202.735ZM229.522 70.3471L222.618 52.187H219.765V79.4185H223.079V61.2583L229.983 79.4185H232.837V52.187H229.522V70.3471ZM238.894 49.8993H241.434L244.804 43.6541H241.269L238.894 49.8993ZM238.433 79.4185H241.931V52.187H238.433V79.4185ZM76.6669 0C70.7472 0 65.4751 2.77128 62.1034 7.06455C59.1275 3.27705 54.6709 0.674756 49.5962 0.116538V7.79641C54.5208 8.74386 58.2506 13.0301 58.2506 18.1602V71.8015H49.5962V79.401H95.082V18.1602C95.0832 8.14602 86.8211 0 76.6669 0ZM87.3765 71.8004H65.9573V18.1602C65.9573 12.3367 70.7614 7.59946 76.6669 7.59946C82.5725 7.59946 87.3765 12.3367 87.3765 18.1602V71.8004ZM32.9786 7.06455C29.6069 2.77128 24.3348 0 18.4163 0C8.26091 0 0 8.14602 0 18.1602V79.3998H45.4858V71.8004H36.8314V18.1602C36.8314 13.0301 40.5612 8.74386 45.4858 7.79641V0.116538C40.4111 0.674756 35.9545 3.27705 32.9786 7.06455ZM29.1259 71.8004H7.70664V18.1602C7.70664 12.3367 12.5107 7.59946 18.4163 7.59946C24.3218 7.59946 29.1259 12.3367 29.1259 18.1602V71.8004Z" fill="#CCB88D"/>
</g>
<defs>
<clipPath id="clip0_2003_2">
<rect width="260" height="80" fill="white"/>
</clipPath>
</defs>
</svg>
